<svg width="72" height="59" viewBox="0 0 72 59" fill="none" xmlns="http://www.w3.org/2000/svg">
<path d="M61.2 0H10.8C7.93566 0 5.18864 1.16551 3.16325 3.24013C1.13785 5.31475 0 8.12854 0 11.0625V47.9375C0 50.8715 1.13785 53.6852 3.16325 55.7599C5.18864 57.8345 7.93566 59 10.8 59H61.2C64.0643 59 66.8114 57.8345 68.8368 55.7599C70.8621 53.6852 72 50.8715 72 47.9375V11.0625C72 8.12854 70.8621 5.31475 68.8368 3.24013C66.8114 1.16551 64.0643 0 61.2 0ZM58.788 7.375L36 24.8906L13.212 7.375H58.788ZM61.2 51.625H10.8C9.84522 51.625 8.92955 51.2365 8.25442 50.545C7.57929 49.8534 7.2 48.9155 7.2 47.9375V11.9844L33.84 32.45C34.4631 32.9287 35.2211 33.1875 36 33.1875C36.7789 33.1875 37.5369 32.9287 38.16 32.45L64.8 11.9844V47.9375C64.8 48.9155 64.4207 49.8534 63.7456 50.545C63.0705 51.2365 62.1548 51.625 61.2 51.625Z" fill="black"/>
</svg>
