<svg width="59" height="59" viewBox="0 0 59 59" fill="none" xmlns="http://www.w3.org/2000/svg">
<path d="M45.253 10.207C44.5529 10.207 43.8684 10.4146 43.2863 10.8036C42.7041 11.1926 42.2504 11.7455 41.9825 12.3923C41.7145 13.0392 41.6444 13.7509 41.781 14.4376C41.9176 15.1243 42.2548 15.7551 42.7498 16.2502C43.2449 16.7452 43.8757 17.0824 44.5624 17.219C45.2491 17.3556 45.9609 17.2855 46.6077 17.0175C47.2546 16.7496 47.8074 16.2959 48.1964 15.7137C48.5854 15.1316 48.793 14.4471 48.793 13.747C48.793 12.8081 48.42 11.9077 47.7562 11.2438C47.0923 10.58 46.1919 10.207 45.253 10.207ZM58.823 17.346C58.7656 14.8984 58.3072 12.4767 57.466 10.1775C56.7159 8.21024 55.5485 6.42887 54.044 4.956C52.5832 3.44391 50.7977 2.28382 48.8225 1.5635C46.5293 0.696674 44.105 0.227769 41.654 0.177C38.527 -1.64844e-07 37.524 0 29.5 0C21.476 0 20.473 -1.64844e-07 17.346 0.177C14.895 0.227769 12.4707 0.696674 10.1775 1.5635C8.20595 2.29111 6.42196 3.4502 4.956 4.956C3.44391 6.41677 2.28382 8.2023 1.5635 10.1775C0.696674 12.4707 0.227769 14.895 0.177 17.346C-1.64844e-07 20.473 0 21.476 0 29.5C0 37.524 -1.64844e-07 38.527 0.177 41.654C0.227769 44.105 0.696674 46.5293 1.5635 48.8225C2.28382 50.7977 3.44391 52.5832 4.956 54.044C6.42196 55.5498 8.20595 56.7089 10.1775 57.4365C12.4707 58.3033 14.895 58.7722 17.346 58.823C20.473 59 21.476 59 29.5 59C37.524 59 38.527 59 41.654 58.823C44.105 58.7722 46.5293 58.3033 48.8225 57.4365C50.7977 56.7162 52.5832 55.5561 54.044 54.044C55.5551 52.5766 56.7236 50.7937 57.466 48.8225C58.3072 46.5233 58.7656 44.1016 58.823 41.654C58.823 38.527 59 37.524 59 29.5C59 21.476 59 20.473 58.823 17.346ZM53.513 41.3C53.4915 43.1726 53.1524 45.0279 52.51 46.787C52.039 48.0708 51.2824 49.2309 50.2975 50.1795C49.3407 51.1545 48.183 51.9095 46.905 52.392C45.1459 53.0344 43.2906 53.3735 41.418 53.395C38.468 53.5425 37.3765 53.572 29.618 53.572C21.8595 53.572 20.768 53.572 17.818 53.395C15.8736 53.4314 13.9376 53.132 12.095 52.51C10.8731 52.0028 9.7685 51.2497 8.85 50.2975C7.87086 49.3498 7.12379 48.1888 6.667 46.905C5.94678 45.1207 5.54731 43.2232 5.487 41.3C5.487 38.35 5.31 37.2585 5.31 29.5C5.31 21.7415 5.31 20.65 5.487 17.7C5.50022 15.7856 5.8497 13.8884 6.5195 12.095C7.03884 10.8498 7.83598 9.73989 8.85 8.85C9.74625 7.8357 10.8539 7.03013 12.095 6.49C13.8932 5.84113 15.7884 5.50198 17.7 5.487C20.65 5.487 21.7415 5.31 29.5 5.31C37.2585 5.31 38.35 5.31 41.3 5.487C43.1726 5.50848 45.0279 5.84763 46.787 6.49C48.1276 6.98752 49.3308 7.7964 50.2975 8.85C51.2642 9.75618 52.0196 10.8641 52.51 12.095C53.1656 13.8914 53.505 15.7878 53.513 17.7C53.6605 20.65 53.69 21.7415 53.69 29.5C53.69 37.2585 53.6605 38.35 53.513 41.3ZM29.5 14.3665C26.5081 14.3723 23.5851 15.2649 21.1003 16.9313C18.6155 18.5977 16.6804 20.9633 15.5395 23.7291C14.3986 26.4949 14.1031 29.5368 14.6904 32.4704C15.2776 35.4041 16.7213 38.0979 18.8389 40.2114C20.9566 42.3249 23.6531 43.7633 26.5879 44.3448C29.5227 44.9264 32.5641 44.625 35.3276 43.4787C38.0912 42.3324 40.453 40.3927 42.1146 37.9046C43.7762 35.4166 44.663 32.4919 44.663 29.5C44.6669 27.5091 44.2772 25.537 43.5162 23.6972C42.7552 21.8575 41.6379 20.1863 40.2288 18.7799C38.8196 17.3734 37.1462 16.2595 35.305 15.502C33.4638 14.7446 31.4909 14.3587 29.5 14.3665ZM29.5 39.3235C27.5571 39.3235 25.6578 38.7474 24.0424 37.6679C22.4269 36.5885 21.1678 35.0543 20.4243 33.2593C19.6808 31.4643 19.4862 29.4891 19.8653 27.5835C20.2443 25.678 21.1799 23.9276 22.5537 22.5537C23.9276 21.1799 25.678 20.2443 27.5835 19.8653C29.4891 19.4862 31.4643 19.6808 33.2593 20.4243C35.0543 21.1678 36.5885 22.4269 37.6679 24.0424C38.7474 25.6578 39.3235 27.5571 39.3235 29.5C39.3235 30.79 39.0694 32.0674 38.5757 33.2593C38.0821 34.4511 37.3585 35.5341 36.4463 36.4463C35.5341 37.3585 34.4511 38.0821 33.2593 38.5757C32.0674 39.0694 30.79 39.3235 29.5 39.3235Z" fill="black"/>
</svg>
