<svg width="59" height="59" viewBox="0 0 59 59" fill="none" xmlns="http://www.w3.org/2000/svg">
<path d="M36.7275 41.5065C41.3 34.2495 47.2 23.6 47.2 17.7C47.2 13.0057 45.3352 8.5036 42.0158 5.18421C38.6964 1.86482 34.1943 0 29.5 0C24.8057 0 20.3036 1.86482 16.9842 5.18421C13.6648 8.5036 11.8 13.0057 11.8 17.7C11.8 23.6 17.7 34.2495 22.2725 41.5065C12.98 42.067 0 43.9255 0 50.15C0 58.351 22.5675 59 29.5 59C36.4325 59 59 58.351 59 50.15C59 43.9255 46.02 42.067 36.7275 41.5065ZM17.7 17.7C17.7 14.5704 18.9432 11.5691 21.1561 9.35614C23.3691 7.14321 26.3704 5.9 29.5 5.9C32.6296 5.9 35.6309 7.14321 37.8439 9.35614C40.0568 11.5691 41.3 14.5704 41.3 17.7C41.3 22.125 35.105 33.158 29.8835 41.3H29.1165C23.895 33.158 17.7 22.125 17.7 17.7ZM29.5 53.1C21.8934 53.4102 14.29 52.4124 7.021 50.15C13.148 48.1694 19.5504 47.1737 25.9895 47.2L27.081 48.8225C27.3529 49.212 27.7148 49.5301 28.1359 49.7497C28.5571 49.9693 29.025 50.084 29.5 50.084C29.975 50.084 30.4429 49.9693 30.8641 49.7497C31.2852 49.5301 31.6471 49.212 31.919 48.8225L33.0105 47.2C39.4496 47.1737 45.852 48.1694 51.979 50.15C44.71 52.4124 37.1066 53.4102 29.5 53.1Z" fill="black"/>
<path d="M37.3763 17.7002C37.3763 16.1424 36.9143 14.6196 36.0489 13.3243C35.1834 12.029 33.9532 11.0195 32.514 10.4233C31.0748 9.82714 29.4911 9.67116 27.9632 9.97508C26.4353 10.279 25.0318 11.0292 23.9303 12.1307C22.8287 13.2323 22.0786 14.6357 21.7746 16.1636C21.4707 17.6915 21.6267 19.2752 22.2229 20.7144C22.819 22.1537 23.8286 23.3838 25.1238 24.2493C26.4191 25.1148 27.942 25.5767 29.4998 25.5767C31.5864 25.569 33.5853 24.7366 35.0607 23.2612C36.5362 21.7857 37.3685 19.7868 37.3763 17.7002ZM27.5233 17.7002C27.5233 17.3093 27.6392 16.9272 27.8564 16.6021C28.0736 16.2771 28.3823 16.0238 28.7434 15.8742C29.1046 15.7246 29.502 15.6854 29.8854 15.7617C30.2688 15.838 30.621 16.0262 30.8974 16.3026C31.1738 16.5791 31.3621 16.9312 31.4383 17.3146C31.5146 17.698 31.4754 18.0955 31.3258 18.4566C31.1762 18.8178 30.9229 19.1265 30.5979 19.3436C30.2728 19.5608 29.8907 19.6767 29.4998 19.6767C28.9756 19.6767 28.4729 19.4685 28.1022 19.0978C27.7315 18.7272 27.5233 18.2244 27.5233 17.7002Z" fill="black"/>
</svg>
