<svg width="59" height="59" viewBox="0 0 59 59" fill="none" xmlns="http://www.w3.org/2000/svg">
<path d="M43.2728 35.4295C42.68 35.1348 38.8269 33.367 38.2342 33.0724C37.6414 32.7778 37.0486 32.7778 36.4558 33.367C35.863 33.9563 34.6775 35.7241 34.0847 36.3134C33.7883 36.9026 33.1955 36.9026 32.6028 36.608C30.528 35.7241 28.4533 34.5456 26.675 33.0724C25.193 31.5993 23.7111 29.8315 22.5255 28.0637C22.2292 27.4744 22.5255 26.8851 22.8219 26.5905C23.1183 26.2959 23.4147 25.7066 24.0075 25.412C24.3039 25.1174 24.6003 24.5281 24.6003 24.2335C24.8967 23.9388 24.8967 23.3496 24.6003 23.0549C24.3039 22.7603 22.8219 19.2247 22.2292 17.7516C21.9328 15.6891 21.34 15.6891 20.7472 15.6891H19.2653C18.6725 15.6891 17.7833 16.2784 17.4869 16.573C15.7086 18.3408 14.8194 20.4032 14.8194 22.7603C15.1158 25.412 16.005 28.0637 17.7833 30.4207C21.0436 35.1348 25.193 38.965 30.2317 41.3221C31.7136 41.9114 32.8992 42.5006 34.3811 42.7953C35.863 43.3845 37.345 43.3845 39.1233 43.0899C41.198 42.7953 42.9764 41.3221 44.1619 39.5543C44.7547 38.3758 44.7547 37.1973 44.4583 36.0187L43.2728 35.4295ZM50.6825 8.61798C39.1233 -2.87266 20.4508 -2.87266 8.89166 8.61798C-0.592778 18.0462 -2.37111 32.4831 4.14944 43.9738L0 59L15.7086 54.8752C20.1544 57.2322 24.8967 58.4107 29.6389 58.4107C45.9403 58.4107 58.9814 45.4469 58.9814 29.2422C59.2778 21.5818 56.0175 14.216 50.6825 8.61798ZM42.68 49.8664C38.8269 52.2235 34.3811 53.6966 29.6389 53.6966C25.193 53.6966 21.0436 52.5181 17.1905 50.4557L16.3014 49.8664L7.11333 52.2235L9.48444 43.3845L8.89166 42.5006C1.77833 30.7154 5.335 15.9838 16.8942 8.61798C28.4533 1.25219 43.2728 5.0824 50.3861 16.2784C57.4994 27.769 54.2391 42.7953 42.68 49.8664Z" fill="black"/>
</svg>
